{
  "extensionsUsed": [
    "KHR_materials_transmission",
    "KHR_materials_clearcoat",
    "KHR_materials_ior",
    "KHR_materials_specular"
  ],
  "accessors": [
    {
      "bufferView": 0,
      "componentType": 5126,
      "count": 126,
      "type": "VEC3",
      "max": [
        4.582001,
        15.7896872,
        7.57604837
      ],
      "min": [
        -7.155931,
        0.05744255,
        -7.550325
      ]
    },
    {
      "bufferView": 1,
      "componentType": 5125,
      "count": 576,
      "type": "SCALAR",
      "max": [
        125.0
      ],
      "min": [
        0.0
      ]
    },
    {
      "bufferView": 2,
      "componentType": 5126,
      "count": 126,
      "type": "VEC3",
      "max": [
        0.980889261,
        1.0,
        0.980889261
      ],
      "min": [
        -0.9872481,
        -1.0,
        -0.980889261
      ]
    },
    {
      "bufferView": 3,
      "componentType": 5126,
      "count": 126,
      "type": "VEC4",
      "max": [
        0.5372549,
        0.7176471,
        0.31764707,
        1.0
      ],
      "min": [
        0.07450981,
        0.3764706,
        0.09411765,
        1.0
      ]
    }
  ],
  "asset": {
    "version": "2.0"
  },
  "buffers": [
    {
      "uri": "data:application/octet-stream;base64,",
      "byteLength": 1512
    },
    {
      "uri": "data:application/octet-stream;base64,",
      "byteLength": 2304
    },
    {
      "uri": "data:application/octet-stream;base64,",
      "byteLength": 1512
    },
    {
      "uri": "data:application/octet-stream;base64,",
      "byteLength": 2016
    }
  ],
  "bufferViews": [
    {
      "buffer": 0,
      "byteLength": 1512,
      "target": 34962
    },
    {
      "buffer": 1,
      "byteLength": 2304,
      "target": 34963
    },
    {
      "buffer": 2,
      "byteLength": 1512,
      "target": 34962
    },
    {
      "buffer": 3,
      "byteLength": 2016,
      "target": 34962
    }
  ],
  "meshes": [
    {
      "primitives": [
        {
          "attributes": {
            "POSITION": 0,
            "NORMAL": 2,
            "COLOR_0": 3
          },
          "indices": 1
        }
      ]
    }
  ],
  "nodes": [
    {
      "mesh": 0
    }
  ],
  "samplers": [
    {
      "magFilter": 9729,
      "minFilter": 9729
    }
  ],
  "scene": 0,
  "scenes": [
    {
      "nodes": [
        0
      ],
      "extensions": {}
    }
  ],
  "extensions": {}
}